<svg xmlns="http://www.w3.org/2000/svg" width="1500" height="1100" viewBox="0 0 1500 1100" role="img" aria-labelledby="title desc">
  <title id="title">Research Note current architecture</title>
  <desc id="desc">Current architecture of the AstrBot Research Note plugin, including commands, import, tools, agent modes, embedding-only search, JSON or SQLite storage, and external research tools.</desc>
  <defs>
    <style>
      .bg { fill: #f6f8fb; }
      .panel { fill: #ffffff; stroke: #d4deea; stroke-width: 2; rx: 22; }
      .blue { fill: #edf6ff; stroke: #78b8ef; stroke-width: 2; rx: 22; }
      .green { fill: #effaf3; stroke: #78cc91; stroke-width: 2; rx: 22; }
      .orange { fill: #fff6ea; stroke: #e6a257; stroke-width: 2; rx: 22; }
      .purple { fill: #f5f1ff; stroke: #aa94ea; stroke-width: 2; rx: 22; }
      .red { fill: #fff1f2; stroke: #ee94a0; stroke-width: 2; rx: 22; }
      .box { fill: #ffffff; stroke: #c7d2df; stroke-width: 1.6; rx: 14; }
      .box-blue { fill: #ffffff; stroke: #408fd1; stroke-width: 2; rx: 14; }
      .box-green { fill: #ffffff; stroke: #3fa35f; stroke-width: 2; rx: 14; }
      .box-orange { fill: #ffffff; stroke: #ce7a25; stroke-width: 2; rx: 14; }
      .box-purple { fill: #ffffff; stroke: #7d65cf; stroke-width: 2; rx: 14; }
      .box-red { fill: #ffffff; stroke: #d85f70; stroke-width: 2; rx: 14; }
      .title { font: 700 30px sans-serif; fill: #172233; }
      .subtitle { font: 500 15px sans-serif; fill: #516173; }
      .section { font: 700 18px sans-serif; fill: #233145; }
      .label { font: 700 14px sans-serif; fill: #233145; }
      .small { font: 500 12px sans-serif; fill: #536477; }
      .tiny { font: 500 11px sans-serif; fill: #63748a; }
      .micro { font: 500 10px sans-serif; fill: #63748a; }
      .arrow { stroke: #65758a; stroke-width: 2.2; fill: none; marker-end: url(#arrow); }
      .arrow-blue { stroke: #2e7fc0; stroke-width: 2.4; fill: none; marker-end: url(#arrowBlue); }
      .arrow-green { stroke: #2e9854; stroke-width: 2.4; fill: none; marker-end: url(#arrowGreen); }
      .arrow-orange { stroke: #ce7a25; stroke-width: 2.4; fill: none; marker-end: url(#arrowOrange); }
      .arrow-purple { stroke: #7056c9; stroke-width: 2.4; fill: none; marker-end: url(#arrowPurple); }
      .arrow-red { stroke: #cf5364; stroke-width: 2.4; fill: none; marker-end: url(#arrowRed); }
      .dash { stroke-dasharray: 7 6; }
      .badge { font: 700 11px sans-serif; fill: #ffffff; }
    </style>
    <marker id="arrow" markerWidth="12" markerHeight="8" refX="10" refY="4" orient="auto"><path d="M0 0 L12 4 L0 8 Z" fill="#65758a" /></marker>
    <marker id="arrowBlue" markerWidth="12" markerHeight="8" refX="10" refY="4" orient="auto"><path d="M0 0 L12 4 L0 8 Z" fill="#2e7fc0" /></marker>
    <marker id="arrowGreen" markerWidth="12" markerHeight="8" refX="10" refY="4" orient="auto"><path d="M0 0 L12 4 L0 8 Z" fill="#2e9854" /></marker>
    <marker id="arrowOrange" markerWidth="12" markerHeight="8" refX="10" refY="4" orient="auto"><path d="M0 0 L12 4 L0 8 Z" fill="#ce7a25" /></marker>
    <marker id="arrowPurple" markerWidth="12" markerHeight="8" refX="10" refY="4" orient="auto"><path d="M0 0 L12 4 L0 8 Z" fill="#7056c9" /></marker>
    <marker id="arrowRed" markerWidth="12" markerHeight="8" refX="10" refY="4" orient="auto"><path d="M0 0 L12 4 L0 8 Z" fill="#cf5364" /></marker>
  </defs>

  <rect class="bg" x="0" y="0" width="1500" height="1100" />
  <text class="title" x="56" y="58">Research Note Plugin Architecture</text>
  <text class="subtitle" x="56" y="84">Current implementation: source-grounded RAG, import, tools, agents, embedding-only search, and JSON/SQLite storage.</text>

  <rect class="panel" x="54" y="120" width="210" height="220" />
  <text class="section" x="82" y="154">User Side</text>
  <rect class="box" x="82" y="178" width="154" height="54" />
  <text class="label" x="102" y="202">User</text>
  <text class="small" x="102" y="220">research task</text>
  <rect class="box" x="82" y="252" width="154" height="54" />
  <text class="label" x="102" y="276">Chat Platform</text>
  <text class="small" x="102" y="294">Slack / Telegram</text>

  <rect class="blue" x="318" y="106" width="270" height="260" />
  <text class="section" x="348" y="140">AstrBot Core</text>
  <rect class="box-blue" x="348" y="166" width="210" height="46" />
  <text class="label" x="368" y="194">Message Event</text>
  <rect class="box-blue" x="348" y="226" width="210" height="46" />
  <text class="label" x="368" y="254">Plugin Star</text>
  <rect class="box-blue" x="348" y="286" width="210" height="46" />
  <text class="label" x="368" y="314">Context API</text>

  <rect class="green" x="658" y="116" width="456" height="322" />
  <text class="section" x="690" y="152">Research Note Plugin</text>
  <text class="small" x="690" y="174">data/plugins/astrbot_plugin_research_note</text>
  <rect class="box-green" x="690" y="198" width="174" height="56" />
  <text class="label" x="710" y="222">Command Router</text>
  <text class="small" x="710" y="240">add / ask / search</text>
  <rect class="box-green" x="908" y="198" width="174" height="56" />
  <text class="label" x="928" y="222">Import Preview</text>
  <text class="small" x="928" y="240">text / url / confirm</text>
  <rect class="box-green" x="690" y="274" width="174" height="56" />
  <text class="label" x="710" y="298">Chunking</text>
  <text class="small" x="710" y="316">Document -&gt; Chunks</text>
  <rect class="box-green" x="908" y="274" width="174" height="56" />
  <text class="label" x="928" y="298">Embedding Search</text>
  <text class="small" x="928" y="316">embedding-only</text>
  <rect class="box-green" x="690" y="350" width="174" height="56" />
  <text class="label" x="710" y="374">Prompt Builder</text>
  <text class="small" x="710" y="392">Sources / Unknowns</text>
  <rect class="box-green" x="908" y="350" width="174" height="56" />
  <text class="label" x="928" y="374">Registered Tools</text>
  <text class="small" x="928" y="392">research_* tools</text>

  <rect class="orange" x="1190" y="112" width="250" height="230" />
  <text class="section" x="1220" y="148">LLM Providers</text>
  <rect class="box-orange" x="1220" y="174" width="190" height="52" />
  <text class="label" x="1240" y="204">Chat Model</text>
  <rect class="box-orange" x="1220" y="246" width="190" height="52" />
  <text class="label" x="1240" y="276">Embedding Model</text>

  <rect class="purple" x="70" y="470" width="354" height="328" />
  <text class="section" x="100" y="506">Research Storage</text>
  <rect class="box-purple" x="100" y="532" width="138" height="54" />
  <text class="label" x="120" y="556">JSON backend</text>
  <text class="small" x="120" y="574">research_notes.json</text>
  <rect class="box-purple" x="258" y="532" width="138" height="54" />
  <text class="label" x="278" y="556">SQLite backend</text>
  <text class="micro" x="278" y="572">research_notes</text>
  <text class="micro" x="278" y="584">.sqlite3</text>
  <rect class="box-purple" x="100" y="606" width="138" height="54" />
  <text class="label" x="120" y="630">Documents</text>
  <text class="small" x="120" y="648">title / source_uri</text>
  <rect class="box-purple" x="258" y="606" width="138" height="54" />
  <text class="label" x="278" y="630">Chunks</text>
  <text class="small" x="278" y="648">content / embedding</text>
  <rect class="box-purple" x="100" y="680" width="296" height="54" />
  <text class="label" x="120" y="704">Backups</text>
  <text class="small" x="120" y="722">data/backups via /research backup</text>

  <rect class="blue" x="486" y="486" width="282" height="288" />
  <text class="section" x="516" y="522">Tool System</text>
  <rect class="box-blue" x="516" y="548" width="222" height="46" />
  <text class="label" x="536" y="576">FunctionToolManager</text>
  <rect class="box-blue" x="516" y="608" width="222" height="46" />
  <text class="label" x="536" y="636">ToolSet</text>
  <rect class="box-blue" x="516" y="668" width="222" height="46" />
  <text class="label" x="536" y="696">Builtin / MCP Tools</text>

  <rect class="red" x="828" y="480" width="294" height="302" />
  <text class="section" x="858" y="516">Agent Modes</text>
  <rect class="box-red" x="858" y="542" width="234" height="44" />
  <text class="label" x="878" y="570">/research agent</text>
  <rect class="box-red" x="858" y="600" width="234" height="44" />
  <text class="label" x="878" y="628">/research agent_web</text>
  <rect class="box-red" x="858" y="658" width="234" height="44" />
  <text class="label" x="878" y="686">/research agent_mcp</text>
  <rect class="box-red" x="858" y="716" width="234" height="44" />
  <text class="label" x="878" y="744">/research agent_multi</text>

  <rect class="orange" x="1190" y="464" width="250" height="328" />
  <text class="section" x="1220" y="500">External Research</text>
  <rect class="box-orange" x="1220" y="526" width="190" height="46" />
  <text class="label" x="1240" y="554">Web Search</text>
  <rect class="box-orange" x="1220" y="586" width="190" height="46" />
  <text class="label" x="1240" y="614">Page Extract</text>
  <rect class="box-orange" x="1220" y="646" width="190" height="46" />
  <text class="label" x="1240" y="674">Knowledge Base</text>
  <rect class="box-orange" x="1220" y="706" width="190" height="46" />
  <text class="label" x="1240" y="734">File / Python Tools</text>

  <rect class="panel" x="96" y="838" width="1308" height="176" />
  <text class="section" x="128" y="874">Main Rules</text>
  <text class="small" x="128" y="904">1. Stored knowledge is Document + Chunk. Every saved chunk must have an embedding.</text>
  <text class="small" x="128" y="928">2. Retrieval is embedding-only; there is no keyword fallback.</text>
  <text class="small" x="128" y="952">3. External results are not saved unless the user confirms import or clearly asks research_add_text to save them.</text>
  <text class="small" x="128" y="976">4. agent_mcp and agent_multi use allowlisted tools. Delete operations require explicit confirmation.</text>
  <text class="small" x="128" y="1000">5. Answers should include source references and unknowns when evidence is missing.</text>

  <path class="arrow" d="M159 232 L159 252" />
  <path class="arrow-blue" d="M236 279 C276 279 306 249 348 249" />
  <path class="arrow-blue" d="M558 249 C600 249 630 226 690 226" />
  <path class="arrow-green" d="M864 226 L908 226" />
  <path class="arrow-green" d="M777 254 L777 274" />
  <path class="arrow-green" d="M777 330 L777 350" />
  <path class="arrow-green" d="M995 254 L995 274" />
  <path class="arrow-orange" d="M1082 302 C1138 302 1168 272 1220 272" />
  <path class="arrow-orange" d="M864 378 C1008 408 1140 200 1220 200" />
  <path class="arrow-purple" d="M908 302 C720 410 542 548 396 559" />
  <path class="arrow-purple" d="M396 633 C544 620 706 448 995 330" />
  <path class="arrow-blue" d="M995 406 C928 446 816 572 738 572" />
  <path class="arrow-red" d="M738 631 C778 632 814 632 858 632" />
  <path class="arrow-orange" d="M1092 622 C1134 622 1176 610 1220 610" />
  <path class="arrow-orange" d="M1092 680 C1136 680 1178 670 1220 670" />
  <path class="arrow-orange" d="M1092 738 C1136 738 1178 728 1220 728" />
  <path class="arrow-green dash" d="M858 738 C760 820 610 800 627 714" />
  <path class="arrow-red dash" d="M1220 550 C1138 500 1084 474 995 374" />

  <text class="tiny" x="56" y="1068">Solid arrows show command, storage, LLM, and tool flow. Dashed arrows show agent feedback loops and controlled external research paths.</text>
</svg>
